# xmcd CD database file
#
# Track frame offsets:
#	150
#	21132
#	46142
#	63542
#	74192
#	95267
#	110642
#	127442
#	141892
#	163520
#	176720
#	194870
#
# Disc length: 2831 seconds
#
# Revision: 0
# Processed by: cddbd v1.5.1PL0 Copyright (c) Steve Scherf et al.
# Submitted via: CDex 1.51
#
DISCID=c00b0d0c
DTITLE=¯dÁn°Û¤ù - ¬î¤§¸Ö
DYEAR=1900
DGENRE=New Age
TTITLE0=Cold,Haily,Windy Night
TTITLE1=John Barleycorn
TTITLE2=Lady Guinevere
TTITLE3=Autumn Harp
TTITLE4=Dadgad Delight
TTITLE5=Toye for Nishka
TTITLE6=Scarborough Fair
TTITLE7=A Beggin i Will Go
TTITLE8=Aeolian
TTITLE9=Drifting On The Moors
TTITLE10=Saucy Sailor
TTITLE11=Long A Growing
EXTD=
EXTT0=
EXTT1=
EXTT2=
EXTT3=
EXTT4=
EXTT5=
EXTT6=
EXTT7=
EXTT8=
EXTT9=
EXTT10=
EXTT11=
PLAYORDER=
